<?xml version="1.0" encoding="UTF-8" standalone="no"?>
<!-- Created with Inkscape (http://www.inkscape.org/) -->

<svg
   xmlns:dc="http://purl.org/dc/elements/1.1/"
   xmlns:cc="http://creativecommons.org/ns#"
   xmlns:rdf="http://www.w3.org/1999/02/22-rdf-syntax-ns#"
   xmlns:svg="http://www.w3.org/2000/svg"
   xmlns="http://www.w3.org/2000/svg"
   xmlns:sodipodi="http://sodipodi.sourceforge.net/DTD/sodipodi-0.dtd"
   xmlns:inkscape="http://www.inkscape.org/namespaces/inkscape"
   width="300"
   height="300"
   viewBox="0 0 79.374996 79.375002"
   version="1.1"
   id="svg5075"
   inkscape:version="0.92.2 (5c3e80d, 2017-08-06)"
   sodipodi:docname="analytics.svg">
  <defs
     id="defs5069" />
  <sodipodi:namedview
     id="base"
     pagecolor="#ffffff"
     bordercolor="#666666"
     borderopacity="1.0"
     inkscape:pageopacity="0.0"
     inkscape:pageshadow="2"
     inkscape:zoom="1.28"
     inkscape:cx="51.073035"
     inkscape:cy="-2.1174185"
     inkscape:document-units="mm"
     inkscape:current-layer="layer1"
     showgrid="false"
     inkscape:window-width="1050"
     inkscape:window-height="1658"
     inkscape:window-x="-8"
     inkscape:window-y="472"
     inkscape:window-maximized="1"
     units="px" />
  <metadata
     id="metadata5072">
    <rdf:RDF>
      <cc:Work
         rdf:about="">
        <dc:format>image/svg+xml</dc:format>
        <dc:type
           rdf:resource="http://purl.org/dc/dcmitype/StillImage" />
        <dc:title></dc:title>
      </cc:Work>
    </rdf:RDF>
  </metadata>
  <g
     inkscape:label="Layer 1"
     inkscape:groupmode="layer"
     id="layer1"
     transform="translate(0,-217.62499)">
    <g
       id="g32"
       transform="matrix(0.26458333,0,0,0.26458333,-186.41979,132.86512)">
      <g
         id="g18">
        <path
           inkscape:connector-curvature="0"
           id="path16"
           d="m 801.922,569.125 h -52.571 c -2.448,0 -4.433,-1.983 -4.433,-4.434 v -66.068 c 0,-5.26 4.281,-9.542 9.545,-9.542 h 42.346 c 5.265,0 9.546,4.282 9.546,9.542 v 66.068 c -10e-4,2.451 -1.988,4.434 -4.433,4.434 z m -48.139,-8.866 h 43.705 v -61.636 c 0,-0.372 -0.305,-0.675 -0.68,-0.675 h -42.346 c -0.377,0 -0.68,0.303 -0.68,0.675 v 61.636 z" />
      </g>
      <g
         id="g22">
        <path
           inkscape:connector-curvature="0"
           id="path20"
           d="m 868.12,569.125 h -52.571 c -2.445,0 -4.433,-1.983 -4.433,-4.434 V 461.015 c 0,-5.262 4.281,-9.543 9.545,-9.543 h 42.347 c 5.264,0 9.545,4.281 9.545,9.543 v 103.677 c 0,2.45 -1.988,4.433 -4.433,4.433 z m -48.139,-8.866 h 43.705 v -99.244 c 0,-0.373 -0.305,-0.678 -0.679,-0.678 H 820.66 c -0.374,0 -0.68,0.305 -0.68,0.678 v 99.244 z" />
      </g>
      <g
         id="g26">
        <path
           inkscape:connector-curvature="0"
           id="path24"
           d="m 933.831,569.125 h -52.568 c -2.45,0 -4.433,-1.983 -4.433,-4.434 V 425.239 c 0,-5.264 4.281,-9.545 9.541,-9.545 h 42.348 c 5.262,0 9.545,4.281 9.545,9.545 v 139.452 c 0,2.451 -1.985,4.434 -4.433,4.434 z m -48.136,-8.866 h 43.703 v -135.02 c 0,-0.375 -0.306,-0.679 -0.68,-0.679 H 886.37 c -0.373,0 -0.676,0.304 -0.676,0.679 v 135.02 z" />
      </g>
      <g
         id="g30">
        <path
           inkscape:connector-curvature="0"
           id="path28"
           d="M 986.4,569.125 H 727.446 c -2.446,0 -4.434,-1.983 -4.434,-4.434 V 380.7 c 0,-2.448 1.987,-4.433 4.434,-4.433 2.45,0 4.433,1.984 4.433,4.433 V 560.259 H 986.4 c 2.45,0 4.433,1.987 4.433,4.433 0,2.45 -1.982,4.433 -4.433,4.433 z" />
      </g>
    </g>
  </g>
</svg>
