<?xml version="1.0" encoding="UTF-8" standalone="no"?>
<!-- Generator: Adobe Illustrator 16.0.0, SVG Export Plug-In . SVG Version: 6.00 Build 0)  -->

<svg
   xmlns:dc="http://purl.org/dc/elements/1.1/"
   xmlns:cc="http://creativecommons.org/ns#"
   xmlns:rdf="http://www.w3.org/1999/02/22-rdf-syntax-ns#"
   xmlns:svg="http://www.w3.org/2000/svg"
   xmlns="http://www.w3.org/2000/svg"
   xmlns:sodipodi="http://sodipodi.sourceforge.net/DTD/sodipodi-0.dtd"
   xmlns:inkscape="http://www.inkscape.org/namespaces/inkscape"
   version="1.1"
   id="Layer_1"
   x="0px"
   y="0px"
   width="1400px"
   height="980px"
   viewBox="0 0 1400 980"
   enable-background="new 0 0 1400 980"
   xml:space="preserve"
   sodipodi:docname="Business.svg"
   inkscape:version="0.92.2 (5c3e80d, 2017-08-06)"><metadata
     id="metadata385"><rdf:RDF><cc:Work
         rdf:about=""><dc:format>image/svg+xml</dc:format><dc:type
           rdf:resource="http://purl.org/dc/dcmitype/StillImage" /><dc:title></dc:title></cc:Work></rdf:RDF></metadata><defs
     id="defs383" /><sodipodi:namedview
     pagecolor="#ffffff"
     bordercolor="#666666"
     borderopacity="1"
     objecttolerance="10"
     gridtolerance="10"
     guidetolerance="10"
     inkscape:pageopacity="0"
     inkscape:pageshadow="2"
     inkscape:window-width="1920"
     inkscape:window-height="1018"
     id="namedview381"
     showgrid="false"
     inkscape:zoom="0.96326531"
     inkscape:cx="623.93028"
     inkscape:cy="406.80414"
     inkscape:window-x="1042"
     inkscape:window-y="1072"
     inkscape:window-maximized="1"
     inkscape:current-layer="Layer_1" /><g
     id="g14"
     transform="translate(-6.2288136,22.838983)"><g
       id="g4"><path
         inkscape:connector-curvature="0"
         id="path2"
         d="m 303.788,534.755 v 0 c -2.556,0 -4.808,-1.632 -5.603,-4.063 l -1.513,-4.619 c -4.96,0.735 -10.11,0.489 -13.895,-0.699 -2.507,-0.794 -4.202,-3.175 -4.127,-5.79 l 0.197,-7.186 c 0.049,-1.827 0.92,-3.496 2.392,-4.58 1.448,-1.074 3.347,-1.429 5.086,-0.938 3.563,0.993 8.127,0.868 11.754,-0.322 1.846,-0.603 3.297,-1.555 4.089,-2.68 0.671,-0.953 0.836,-1.97 0.489,-3.03 -0.397,-1.217 -1.062,-3.251 -9.39,-3.827 -10.146,-0.58 -22.351,-2.865 -26.475,-15.47 -3.014,-9.202 0.056,-18.466 8.014,-24.548 l -1.751,-5.35 c -0.49,-1.497 -0.367,-3.094 0.345,-4.499 0.711,-1.404 1.927,-2.449 3.424,-2.938 l 5.952,-1.949 c 0.596,-0.194 1.212,-0.294 1.835,-0.294 2.556,0 4.807,1.633 5.603,4.063 l 1.4,4.278 c 3.754,-0.512 7.364,-0.383 10.878,0.383 2.816,0.61 4.767,3.146 4.637,6.03 l -0.325,7.121 c -0.078,1.726 -0.906,3.325 -2.271,4.386 -1.341,1.044 -3.134,1.464 -4.808,1.122 -0.85,-0.176 -2.271,-0.468 -4.128,-0.468 -1.982,0 -4.005,0.334 -6.013,0.991 -2.949,0.965 -4.264,2.438 -3.704,4.149 0.331,1.012 0.742,2.271 10.329,3.002 8.917,0.633 21.307,3.056 25.788,16.743 3.089,9.431 -0.209,19.316 -8.408,25.617 l 1.85,5.651 c 1.011,3.089 -0.679,6.424 -3.766,7.441 l -6.051,1.979 c -0.595,0.196 -1.212,0.294 -1.834,0.294 z m -5.603,-13.409 c 0.941,0 1.803,0.602 2.104,1.528 l 2.108,6.441 c 0.198,0.602 0.757,1.007 1.391,1.007 v 0 c 0.154,0 0.307,-0.024 0.456,-0.071 l 6.049,-1.98 c 0.765,-0.251 1.185,-1.08 0.935,-1.847 l -2.354,-7.19 c -0.309,-0.941 0.044,-1.972 0.863,-2.526 7.628,-5.162 10.711,-13.422 8.049,-21.556 -3.59,-10.958 -13.086,-13.074 -21.901,-13.698 -8.684,-0.662 -12.793,-1.691 -14.219,-6.046 -1.034,-3.168 0.057,-7.619 6.539,-9.74 2.453,-0.803 4.94,-1.211 7.393,-1.211 2.309,0 4.072,0.363 5.021,0.559 0.412,0.085 0.858,-0.02 1.191,-0.278 0.341,-0.265 0.547,-0.661 0.566,-1.09 l 0.325,-7.121 c 0.033,-0.716 -0.451,-1.345 -1.148,-1.496 -3.535,-0.769 -7.194,-0.784 -11.034,-0.044 -1.1,0.211 -2.179,-0.428 -2.524,-1.487 l -1.991,-6.083 c -0.246,-0.748 -1.077,-1.189 -1.847,-0.935 l -5.952,1.948 c -0.371,0.123 -0.672,0.382 -0.85,0.729 -0.177,0.349 -0.207,0.746 -0.086,1.117 l 2.257,6.893 c 0.309,0.943 -0.047,1.976 -0.869,2.528 -7.365,4.956 -10.226,12.61 -7.65,20.478 3.265,9.971 12.763,11.864 22.542,12.424 8.059,0.559 11.911,2.55 13.323,6.874 0.784,2.39 0.4,4.861 -1.078,6.961 -1.358,1.927 -3.548,3.429 -6.332,4.338 -4.471,1.468 -9.899,1.61 -14.326,0.381 -0.441,-0.123 -0.9,-0.035 -1.261,0.229 -0.36,0.269 -0.582,0.692 -0.595,1.139 l -0.197,7.186 c -0.019,0.654 0.404,1.242 1.027,1.441 3.529,1.106 8.807,1.204 13.644,0.243 0.142,-0.03 0.288,-0.045 0.431,-0.045 z" /></g><g
       id="g8"><path
         inkscape:connector-curvature="0"
         id="path6"
         d="m 294.384,579.83 c -39.631,0 -74.547,-25.324 -86.886,-63.017 -7.6,-23.212 -5.703,-47.996 5.337,-69.783 11.041,-21.787 29.905,-37.971 53.119,-45.57 9.247,-3.027 18.823,-4.562 28.466,-4.562 39.63,0 74.549,25.324 86.889,63.018 15.686,47.922 -10.538,99.668 -58.457,115.352 -9.247,3.028 -18.826,4.562 -28.468,4.562 z m 0.036,-174.066 c -8.704,0 -17.354,1.387 -25.708,4.123 -20.963,6.861 -37.999,21.476 -47.969,41.15 -9.97,19.676 -11.682,42.056 -4.818,63.019 11.143,34.039 42.672,56.909 78.459,56.909 8.704,0 17.354,-1.386 25.709,-4.121 43.273,-14.165 66.954,-60.896 52.79,-104.17 -11.144,-34.04 -42.676,-56.91 -78.463,-56.91 z" /></g><g
       id="g12"><path
         inkscape:connector-curvature="0"
         id="path10"
         d="m 294.389,559.705 c -30.912,0 -58.146,-19.753 -67.768,-49.151 -12.235,-37.375 8.218,-77.736 45.593,-89.971 7.213,-2.361 14.683,-3.559 22.203,-3.559 30.911,0 58.146,19.752 67.768,49.151 5.928,18.105 4.449,37.435 -4.162,54.43 -8.611,16.991 -23.324,29.614 -41.431,35.541 -7.213,2.362 -14.683,3.559 -22.203,3.559 z m 0.028,-138.247 c -7.051,0 -14.057,1.123 -20.824,3.337 -35.052,11.476 -54.233,49.328 -42.76,84.38 9.025,27.573 34.566,46.098 63.556,46.098 7.051,0 14.058,-1.122 20.825,-3.338 16.979,-5.559 30.778,-17.396 38.855,-33.333 8.075,-15.939 9.462,-34.066 3.903,-51.047 -9.024,-27.573 -34.565,-46.097 -63.555,-46.097 z" /></g></g><g
     id="g32"
     transform="translate(-6.2288136,22.838983)"><g
       id="g18"><path
         inkscape:connector-curvature="0"
         id="path16"
         d="m 801.922,569.125 h -52.571 c -2.448,0 -4.433,-1.983 -4.433,-4.434 v -66.068 c 0,-5.26 4.281,-9.542 9.545,-9.542 h 42.346 c 5.265,0 9.546,4.282 9.546,9.542 v 66.068 c -10e-4,2.451 -1.988,4.434 -4.433,4.434 z m -48.139,-8.866 h 43.705 v -61.636 c 0,-0.372 -0.305,-0.675 -0.68,-0.675 h -42.346 c -0.377,0 -0.68,0.303 -0.68,0.675 v 61.636 z" /></g><g
       id="g22"><path
         inkscape:connector-curvature="0"
         id="path20"
         d="m 868.12,569.125 h -52.571 c -2.445,0 -4.433,-1.983 -4.433,-4.434 V 461.015 c 0,-5.262 4.281,-9.543 9.545,-9.543 h 42.347 c 5.264,0 9.545,4.281 9.545,9.543 v 103.677 c 0,2.45 -1.988,4.433 -4.433,4.433 z m -48.139,-8.866 h 43.705 v -99.244 c 0,-0.373 -0.305,-0.678 -0.679,-0.678 H 820.66 c -0.374,0 -0.68,0.305 -0.68,0.678 v 99.244 z" /></g><g
       id="g26"><path
         inkscape:connector-curvature="0"
         id="path24"
         d="m 933.831,569.125 h -52.568 c -2.45,0 -4.433,-1.983 -4.433,-4.434 V 425.239 c 0,-5.264 4.281,-9.545 9.541,-9.545 h 42.348 c 5.262,0 9.545,4.281 9.545,9.545 v 139.452 c 0,2.451 -1.985,4.434 -4.433,4.434 z m -48.136,-8.866 h 43.703 v -135.02 c 0,-0.375 -0.306,-0.679 -0.68,-0.679 H 886.37 c -0.373,0 -0.676,0.304 -0.676,0.679 v 135.02 z" /></g><g
       id="g30"><path
         inkscape:connector-curvature="0"
         id="path28"
         d="M 986.4,569.125 H 727.446 c -2.446,0 -4.434,-1.983 -4.434,-4.434 V 380.7 c 0,-2.448 1.987,-4.433 4.434,-4.433 2.45,0 4.433,1.984 4.433,4.433 V 560.259 H 986.4 c 2.45,0 4.433,1.987 4.433,4.433 0,2.45 -1.982,4.433 -4.433,4.433 z" /></g></g><g
     id="g80"
     transform="translate(-6.2288136,22.838983)"><g
       id="g46"><g
         id="g36"><path
           inkscape:connector-curvature="0"
           id="path34"
           d="m 691.143,783.901 h -54.874 c -2.277,0 -4.185,-1.727 -4.411,-3.993 -0.842,-8.427 -2.785,-19.119 -4.453,-21.694 l -2.658,-4.085 c -11.369,-17.441 -20.35,-31.218 -20.35,-47.374 0,-32.7 26.604,-59.307 59.307,-59.307 32.704,0 59.31,26.606 59.31,59.307 0,16.156 -8.978,29.933 -20.348,47.374 l -2.658,4.085 c -1.674,2.58 -3.614,13.271 -4.453,21.692 -0.228,2.269 -2.134,3.995 -4.412,3.995 z m -50.917,-8.865 h 46.96 c 0.79,-6.26 2.524,-17.238 5.382,-21.645 l 2.67,-4.104 c 10.566,-16.207 18.91,-29.008 18.91,-42.532 0,-27.813 -22.628,-50.44 -50.444,-50.44 -27.813,0 -50.44,22.627 -50.44,50.44 0,13.524 8.345,26.325 18.911,42.532 l 2.669,4.104 c 2.855,4.407 4.592,15.385 5.382,21.645 z" /></g><g
         id="g40"><path
           inkscape:connector-curvature="0"
           id="path38"
           d="m 686.941,820.343 h -46.13 c -5.281,0 -9.577,-4.296 -9.577,-9.578 v -28.809 c 0,-2.448 1.984,-4.433 4.433,-4.433 h 56.419 c 2.448,0 4.433,1.984 4.433,4.433 v 28.809 c 0,5.282 -4.296,9.578 -9.578,9.578 z M 640.1,786.389 v 24.376 c 0,0.395 0.319,0.713 0.712,0.713 h 46.13 c 0.393,0 0.712,-0.318 0.712,-0.713 v -24.376 z" /></g><g
         id="g44"><path
           inkscape:connector-curvature="0"
           id="path42"
           d="m 663.877,832.565 c -8.474,0 -15.366,-6.892 -15.366,-15.365 0,-2.448 1.985,-4.433 4.433,-4.433 2.448,0 4.434,1.984 4.434,4.433 0,3.584 2.915,6.5 6.5,6.5 3.584,0 6.499,-2.916 6.499,-6.5 0,-2.448 1.985,-4.433 4.434,-4.433 2.447,0 4.433,1.984 4.433,4.433 -0.002,8.474 -6.894,15.365 -15.367,15.365 z" /></g></g><g
       id="g50"><path
         inkscape:connector-curvature="0"
         id="path48"
         d="m 663.703,632.898 c -2.448,0 -4.433,-1.984 -4.433,-4.433 v -22.121 c 0,-2.45 1.984,-4.433 4.433,-4.433 2.449,0 4.433,1.982 4.433,4.433 v 22.121 c 0,2.449 -1.985,4.433 -4.433,4.433 z" /></g><g
       id="g54"><path
         inkscape:connector-curvature="0"
         id="path52"
         d="m 758.346,705.422 h -22.121 c -2.449,0 -4.433,-1.987 -4.433,-4.433 0,-2.45 1.983,-4.433 4.433,-4.433 h 22.121 c 2.45,0 4.434,1.982 4.434,4.433 -10e-4,2.446 -1.984,4.433 -4.434,4.433 z" /></g><g
       id="g58"><path
         inkscape:connector-curvature="0"
         id="path56"
         d="M 591.183,705.422 H 569.06 c -2.448,0 -4.434,-1.987 -4.434,-4.433 0,-2.45 1.985,-4.433 4.434,-4.433 h 22.123 c 2.448,0 4.433,1.982 4.433,4.433 -10e-4,2.446 -1.985,4.433 -4.433,4.433 z" /></g><g
       id="g62"><path
         inkscape:connector-curvature="0"
         id="path60"
         d="m 714.982,654.141 c -1.134,0 -2.268,-0.433 -3.134,-1.298 -1.731,-1.731 -1.731,-4.539 0,-6.269 l 15.645,-15.645 c 1.728,-1.732 4.537,-1.732 6.269,0 1.731,1.731 1.731,4.536 0,6.268 l -15.645,15.646 c -0.863,0.865 -2,1.298 -3.135,1.298 z" /></g><g
       id="g66"><path
         inkscape:connector-curvature="0"
         id="path64"
         d="m 596.782,772.344 c -1.135,0 -2.269,-0.434 -3.135,-1.299 -1.731,-1.731 -1.731,-4.537 0,-6.269 l 15.643,-15.645 c 1.729,-1.731 4.537,-1.731 6.269,0 1.732,1.731 1.731,4.538 0,6.268 l -15.643,15.646 c -0.864,0.865 -2,1.299 -3.134,1.299 z" /></g><g
       id="g70"><path
         inkscape:connector-curvature="0"
         id="path68"
         d="m 730.628,772.344 c -1.135,0 -2.271,-0.434 -3.135,-1.299 l -15.645,-15.646 c -1.731,-1.729 -1.731,-4.536 0,-6.268 1.731,-1.732 4.541,-1.731 6.269,0 l 15.645,15.645 c 1.731,1.731 1.731,4.537 0,6.269 -0.866,0.865 -2,1.299 -3.134,1.299 z" /></g><g
       id="g74"><path
         inkscape:connector-curvature="0"
         id="path72"
         d="m 612.425,654.141 c -1.135,0 -2.27,-0.433 -3.135,-1.298 l -15.643,-15.646 c -1.731,-1.729 -1.731,-4.536 0,-6.268 1.729,-1.732 4.539,-1.732 6.269,0 l 15.643,15.645 c 1.731,1.729 1.731,4.537 0,6.269 -0.865,0.865 -2,1.298 -3.134,1.298 z" /></g><g
       id="g78"><path
         inkscape:connector-curvature="0"
         id="path76"
         d="m 656.05,781.686 c -1.224,0 -2.217,-0.994 -2.217,-2.217 0,-16.616 -0.77,-34.648 -2.13,-46.958 -3.669,-0.479 -6.558,-1.087 -7.961,-1.695 -4.62,-2 -5.357,-7.563 -3.706,-11.783 1.805,-4.619 5.866,-6.861 9.891,-5.45 2.646,0.931 4.473,6.822 5.724,15.069 4.007,0.351 8.55,0.48 12.818,0.381 0.796,-6.439 1.916,-11.731 3.485,-14.463 2.962,-5.151 7.103,-5.229 9.997,-3.576 4.961,2.831 8.877,12.039 5.937,17.221 -1.756,3.1 -8.061,4.565 -15.42,5.043 -1.466,15.304 -1.571,36.359 -1.403,46.173 0.021,1.226 -0.954,2.234 -2.179,2.256 -1.221,-0.078 -2.233,-0.957 -2.254,-2.18 -0.064,-3.79 -0.392,-27.872 1.356,-46.075 -3.987,0.058 -8.069,-0.117 -11.755,-0.436 1.676,14.11 2.033,32.979 2.033,46.474 0.001,1.221 -0.993,2.216 -2.216,2.216 z m 22.487,-67.243 c -0.733,0 -1.673,0.48 -2.738,2.334 -1.226,2.134 -2.152,6.502 -2.846,12.047 5.722,-0.402 10.24,-1.316 11.08,-2.797 1.54,-2.714 -0.98,-9.301 -4.28,-11.186 -0.286,-0.161 -0.7,-0.398 -1.216,-0.398 z m -31.067,3.1 c -1.972,0 -3.083,2.535 -3.307,3.104 -0.896,2.29 -0.73,5.206 1.341,6.104 1.287,0.554 3.263,1.017 5.655,1.381 -0.802,-5.719 -1.764,-9.559 -2.86,-10.446 -0.291,-0.1 -0.568,-0.143 -0.829,-0.143 z" /></g></g><g
     id="g102"
     transform="translate(-6.2288136,22.838983)"><g
       id="g84"><path
         inkscape:connector-curvature="0"
         id="path82"
         d="M 808.289,336.217 H 557.251 c -1.746,0 -3.33,-1.025 -4.044,-2.619 -0.716,-1.593 -0.428,-3.456 0.733,-4.762 l 43.513,-48.882 c 0.841,-0.944 2.045,-1.485 3.311,-1.485 H 764.78 c 1.264,0 2.467,0.541 3.312,1.485 l 43.51,48.882 c 1.16,1.306 1.448,3.169 0.731,4.762 -0.715,1.593 -2.299,2.619 -4.044,2.619 z M 567.132,327.352 H 798.408 L 762.787,287.335 H 602.753 Z" /></g><g
       id="g88"><path
         inkscape:connector-curvature="0"
         id="path86"
         d="M 767.463,287.335 H 600.764 c -2.448,0 -4.433,-1.985 -4.433,-4.434 V 166.868 c 0,-2.448 1.984,-4.433 4.433,-4.433 h 166.699 c 2.45,0 4.433,1.984 4.433,4.433 v 116.033 c 0,2.449 -1.983,4.434 -4.433,4.434 z M 605.196,278.469 H 763.03 V 171.301 H 605.196 Z" /></g><g
       id="g92"><path
         inkscape:connector-curvature="0"
         id="path90"
         d="M 752.424,270.075 H 615.805 c -1.225,0 -2.217,-0.991 -2.217,-2.217 v -85.949 c 0,-1.224 0.992,-2.217 2.217,-2.217 h 136.619 c 1.223,0 2.217,0.993 2.217,2.217 v 85.949 c 0,1.226 -0.995,2.217 -2.217,2.217 z M 618.021,265.643 H 750.209 V 184.126 H 618.021 Z" /></g><g
       id="g96"><path
         inkscape:connector-curvature="0"
         id="path94"
         d="M 770.853,309.56 H 594.688 c -0.873,0 -1.664,-0.513 -2.022,-1.31 -0.357,-0.797 -0.213,-1.729 0.367,-2.381 l 12.59,-14.146 c 0.421,-0.472 1.022,-0.74 1.655,-0.74 h 150.983 c 0.634,0 1.236,0.269 1.656,0.74 l 12.588,14.146 c 0.58,0.651 0.726,1.584 0.368,2.381 -0.358,0.797 -1.148,1.31 -2.02,1.31 z m -171.224,-4.433 h 166.282 l -8.643,-9.71 H 608.273 Z" /></g><g
       id="g100"><path
         inkscape:connector-curvature="0"
         id="path98"
         d="m 699.257,325.685 h -32.975 c -0.788,0 -1.517,-0.42 -1.914,-1.1 -0.397,-0.68 -0.403,-1.52 -0.017,-2.205 l 6.104,-10.818 c 0.394,-0.697 1.131,-1.128 1.931,-1.128 h 20.768 c 0.8,0 1.538,0.431 1.931,1.128 l 6.104,10.818 c 0.387,0.686 0.381,1.525 -0.017,2.205 -0.398,0.68 -1.127,1.1 -1.915,1.1 z m -29.179,-4.433 h 25.384 l -3.604,-6.385 H 673.68 Z" /></g></g><g
     id="g120"
     transform="translate(-6.2288136,22.838983)"><g
       id="g106"><path
         inkscape:connector-curvature="0"
         id="path104"
         d="M 466.767,352.234 H 328.49 c -8.157,0 -14.793,-6.636 -14.793,-14.792 V 161.211 c 0,-2.447 1.984,-4.433 4.433,-4.433 2.449,0 4.433,1.985 4.433,4.433 v 176.231 c 0,3.268 2.659,5.926 5.928,5.926 h 133.844 v -64.624 c 0,-2.448 1.984,-4.434 4.433,-4.434 2.449,0 4.433,1.985 4.433,4.434 v 69.058 c -0.002,2.447 -1.986,4.432 -4.434,4.432 z" /></g><g
       id="g110"><path
         inkscape:connector-curvature="0"
         id="path108"
         d="m 466.767,249.599 c -2.448,0 -4.433,-1.984 -4.433,-4.433 V 176.005 H 328.49 c -8.157,0 -14.793,-6.637 -14.793,-14.794 0,-8.156 6.636,-14.793 14.793,-14.793 h 128.364 c 2.448,0 4.433,1.985 4.433,4.434 v 16.287 h 5.479 c 2.448,0 4.433,1.985 4.433,4.433 v 73.595 c 0,2.447 -1.984,4.432 -4.432,4.432 z M 328.49,155.284 c -3.269,0 -5.928,2.659 -5.928,5.927 0,3.269 2.659,5.928 5.928,5.928 H 452.422 V 155.285 H 328.49 Z" /></g><g
       id="g114"><path
         inkscape:connector-curvature="0"
         id="path112"
         d="m 426.322,271.766 c -5.41,0 -9.812,-4.4 -9.812,-9.81 0,-5.41 4.401,-9.812 9.812,-9.812 5.409,0 9.81,4.401 9.81,9.812 0,5.409 -4.401,9.81 -9.81,9.81 z m 0,-15.189 c -2.965,0 -5.379,2.413 -5.379,5.379 0,2.964 2.414,5.377 5.379,5.377 2.964,0 5.377,-2.413 5.377,-5.377 0,-2.966 -2.413,-5.379 -5.377,-5.379 z" /></g><g
       id="g118"><path
         inkscape:connector-curvature="0"
         id="path116"
         d="m 481.794,283.177 h -55.472 c -11.701,0 -21.221,-9.52 -21.221,-21.221 0,-11.702 9.52,-21.223 21.221,-21.223 h 55.472 c 2.447,0 4.433,1.984 4.433,4.433 v 33.578 c 0,2.447 -1.986,4.433 -4.433,4.433 z m -55.472,-33.578 c -6.813,0 -12.354,5.544 -12.354,12.357 0,6.813 5.542,12.354 12.354,12.354 h 51.038 v -24.712 h -51.038 z" /></g></g><g
     id="g190"
     transform="translate(-6.2288136,22.838983)"><g
       id="g124"><path
         inkscape:connector-curvature="0"
         id="path122"
         d="m 978.255,378.317 c -55.151,0 -100.017,-44.867 -100.017,-100.017 0,-55.148 44.865,-100.016 100.017,-100.016 55.146,0 100.017,44.867 100.017,100.016 -10e-4,55.15 -44.871,100.017 -100.017,100.017 z m 0,-191.167 c -50.262,0 -91.15,40.891 -91.15,91.15 0,50.261 40.889,91.15 91.15,91.15 50.259,0 91.15,-40.89 91.15,-91.15 0,-50.259 -40.891,-91.15 -91.15,-91.15 z" /></g><g
       id="g128"><path
         inkscape:connector-curvature="0"
         id="path126"
         d="m 978.255,353.383 c -41.402,0 -75.081,-33.682 -75.081,-75.082 0,-41.399 33.679,-75.081 75.081,-75.081 41.397,0 75.082,33.682 75.082,75.081 0,41.4 -33.685,75.082 -75.082,75.082 z m 0,-145.731 c -38.956,0 -70.648,31.692 -70.648,70.648 0,38.957 31.692,70.648 70.648,70.648 38.956,0 70.648,-31.691 70.648,-70.648 0,-38.955 -31.692,-70.648 -70.648,-70.648 z" /></g><g
       id="g132"><path
         inkscape:connector-curvature="0"
         id="path130"
         d="m 1010.479,192.721 c -0.251,0 -0.502,-0.021 -0.758,-0.064 -2.411,-0.415 -4.032,-2.706 -3.618,-5.119 0.272,-1.581 0.411,-3.202 0.411,-4.819 0,-15.582 -12.68,-28.26 -28.26,-28.26 -15.584,0 -28.26,12.678 -28.26,28.26 0,1.619 0.137,3.24 0.407,4.817 0.416,2.413 -1.208,4.704 -3.619,5.118 -2.42,0.406 -4.705,-1.206 -5.119,-3.618 -0.354,-2.072 -0.534,-4.197 -0.534,-6.317 0,-20.471 16.653,-37.125 37.125,-37.125 20.47,0 37.125,16.654 37.125,37.125 0,2.118 -0.182,4.243 -0.537,6.319 -0.371,2.158 -2.245,3.682 -4.363,3.683 z" /></g><g
       id="g142"><g
         id="g136"><path
           inkscape:connector-curvature="0"
           id="path134"
           d="m 1061.345,195.063 c -1.134,0 -2.269,-0.433 -3.134,-1.298 l -13.48,-13.483 c -1.731,-1.73 -1.731,-4.537 0,-6.268 1.728,-1.732 4.536,-1.732 6.269,0 l 13.48,13.482 c 1.731,1.73 1.731,4.537 0,6.269 -0.865,0.866 -2.001,1.298 -3.135,1.298 z" /></g><g
         id="g140"><path
           inkscape:connector-curvature="0"
           id="path138"
           d="m 1035.068,205.644 c -0.567,0 -1.135,-0.216 -1.567,-0.649 -0.865,-0.865 -0.865,-2.268 0,-3.134 l 19.537,-19.537 c 0.865,-0.865 2.268,-0.865 3.134,0 0.866,0.866 0.866,2.269 0,3.135 l -19.536,19.536 c -0.434,0.433 -1,0.649 -1.568,0.649 z" /></g></g><g
       id="g152"><g
         id="g146"><path
           inkscape:connector-curvature="0"
           id="path144"
           d="m 892.251,195.063 c -1.134,0 -2.271,-0.433 -3.134,-1.298 -1.731,-1.731 -1.731,-4.538 0,-6.269 l 13.48,-13.482 c 1.731,-1.732 4.541,-1.732 6.269,0 1.731,1.73 1.731,4.537 0,6.268 l -13.48,13.483 c -0.866,0.866 -2,1.298 -3.135,1.298 z" /></g><g
         id="g150"><path
           inkscape:connector-curvature="0"
           id="path148"
           d="m 918.528,205.644 c -0.567,0 -1.135,-0.216 -1.567,-0.649 l -19.536,-19.536 c -0.866,-0.866 -0.866,-2.269 0,-3.135 0.865,-0.865 2.269,-0.865 3.134,0 l 19.537,19.537 c 0.865,0.866 0.865,2.269 0,3.134 -0.434,0.433 -1,0.649 -1.568,0.649 z" /></g></g><g
       id="g172"><g
         id="g156"><path
           inkscape:connector-curvature="0"
           id="path154"
           d="m 978.255,344.976 c -1.225,0 -2.217,-0.992 -2.217,-2.217 v -12.002 c 0,-1.224 0.992,-2.216 2.217,-2.216 1.223,0 2.217,0.992 2.217,2.216 v 12.002 c 0,1.224 -0.994,2.217 -2.217,2.217 z" /></g><g
         id="g170"><g
           id="g160"><path
             inkscape:connector-curvature="0"
             id="path158"
             d="m 978.255,228.062 c -1.225,0 -2.217,-0.992 -2.217,-2.217 v -12.002 c 0,-1.224 0.992,-2.217 2.217,-2.217 1.223,0 2.217,0.993 2.217,2.217 v 12.002 c 0,1.224 -0.994,2.217 -2.217,2.217 z" /></g><g
           id="g164"><path
             inkscape:connector-curvature="0"
             id="path162"
             d="m 1042.713,280.518 h -12.004 c -1.223,0 -2.217,-0.992 -2.217,-2.217 0,-1.224 0.994,-2.216 2.217,-2.216 h 12.004 c 1.224,0 2.217,0.992 2.217,2.216 0,1.224 -0.993,2.217 -2.217,2.217 z" /></g><g
           id="g168"><path
             inkscape:connector-curvature="0"
             id="path166"
             d="m 925.797,280.518 h -12 c -1.226,0 -2.217,-0.992 -2.217,-2.217 0,-1.224 0.991,-2.216 2.217,-2.216 h 12 c 1.225,0 2.216,0.992 2.216,2.216 0,1.224 -0.992,2.217 -2.216,2.217 z" /></g></g></g><g
       id="g176"><path
         inkscape:connector-curvature="0"
         id="path174"
         d="m 978.255,282.587 c -0.073,0 -0.147,-0.004 -0.221,-0.011 -0.703,-0.07 -1.329,-0.471 -1.688,-1.079 l -23.461,-39.733 c -0.621,-1.055 -0.271,-2.412 0.781,-3.036 1.055,-0.62 2.411,-0.272 3.037,0.783 l 21.924,37.133 19.219,-21.347 c 0.815,-0.909 2.221,-0.983 3.13,-0.164 0.911,0.819 0.984,2.221 0.164,3.13 l -21.24,23.59 c -0.421,0.469 -1.022,0.734 -1.645,0.734 z" /></g><g
       id="g180"><path
         inkscape:connector-curvature="0"
         id="path178"
         d="m 977.817,288.18 c -4.077,0 -7.394,-3.317 -7.394,-7.394 0,-4.077 3.316,-7.395 7.394,-7.395 4.076,0 7.395,3.317 7.395,7.395 0,4.076 -3.318,7.394 -7.395,7.394 z m 0,-8.866 c -0.813,0 -1.472,0.66 -1.472,1.472 0,0.812 0.658,1.472 1.472,1.472 0.81,0 1.472,-0.66 1.472,-1.472 0,-0.812 -0.662,-1.472 -1.472,-1.472 z" /></g><g
       id="g184"><path
         inkscape:connector-curvature="0"
         id="path182"
         d="m 1046.462,378.317 c -2.45,0 -4.433,-1.984 -4.433,-4.433 V 345.24 c 0,-2.448 1.982,-4.434 4.433,-4.434 2.446,0 4.433,1.985 4.433,4.434 v 28.645 c 0,2.448 -1.987,4.432 -4.433,4.432 z" /></g><g
       id="g188"><path
         inkscape:connector-curvature="0"
         id="path186"
         d="m 909.662,378.317 c -2.45,0 -4.433,-1.984 -4.433,-4.433 V 345.24 c 0,-2.448 1.982,-4.434 4.433,-4.434 2.446,0 4.434,1.985 4.434,4.434 v 28.645 c 0,2.448 -1.988,4.432 -4.434,4.432 z" /></g></g><g
     id="g224"
     transform="translate(-6.2288136,22.838983)"><g
       id="g194"><path
         inkscape:connector-curvature="0"
         id="path192"
         d="m 615.119,511.818 h -141.85 c -1.954,0 -3.677,-1.279 -4.243,-3.147 L 441.982,419.44 c -0.019,-0.057 -0.035,-0.112 -0.052,-0.17 L 430.907,382.9 h -21.646 c -2.447,0 -4.433,-1.984 -4.433,-4.433 0,-2.449 1.985,-4.433 4.433,-4.433 h 24.936 c 1.953,0 3.676,1.278 4.242,3.146 l 11.048,36.452 H 644.67 c 1.423,0 2.76,0.684 3.593,1.837 0.834,1.153 1.063,2.638 0.616,3.989 l -29.551,89.316 c -0.6,1.819 -2.298,3.044 -4.209,3.044 z m -138.562,-8.866 h 135.36 L 638.533,422.5 h -186.36 z" /></g><g
       id="g198"><path
         inkscape:connector-curvature="0"
         id="path196"
         d="M 609.84,572.099 H 461.901 c -1.713,0 -3.272,-0.987 -4.007,-2.537 -0.732,-1.547 -0.509,-3.381 0.577,-4.705 l 39.896,-48.716 c 0.842,-1.028 2.101,-1.626 3.43,-1.626 h 100.848 c 2.448,0 4.433,1.987 4.433,4.433 0,2.45 -1.984,4.434 -4.433,4.434 h -98.748 l -32.635,39.853 H 609.84 c 2.448,0 4.434,1.982 4.434,4.433 -10e-4,2.443 -1.986,4.431 -4.434,4.431 z" /></g><g
       id="g202"><path
         inkscape:connector-curvature="0"
         id="path200"
         d="m 507.615,598.419 c -7.943,0 -14.407,-6.463 -14.407,-14.407 0,-7.943 6.464,-14.406 14.407,-14.406 7.943,0 14.406,6.463 14.406,14.406 0,7.944 -6.462,14.407 -14.406,14.407 z m 0,-19.948 c -3.056,0 -5.541,2.485 -5.541,5.541 0,3.055 2.485,5.541 5.541,5.541 3.055,0 5.541,-2.486 5.541,-5.541 0,-3.056 -2.486,-5.541 -5.541,-5.541 z" /></g><g
       id="g206"><path
         inkscape:connector-curvature="0"
         id="path204"
         d="m 583.025,598.419 c -7.943,0 -14.406,-6.463 -14.406,-14.407 0,-7.943 6.463,-14.406 14.406,-14.406 7.943,0 14.407,6.463 14.407,14.406 10e-4,7.944 -6.463,14.407 -14.407,14.407 z m 0,-19.948 c -3.055,0 -5.541,2.485 -5.541,5.541 0,3.055 2.486,5.541 5.541,5.541 3.056,0 5.541,-2.486 5.541,-5.541 0,-3.056 -2.485,-5.541 -5.541,-5.541 z" /></g><g
       id="g210"><path
         inkscape:connector-curvature="0"
         id="path208"
         d="M 639.216,436.926 H 450.691 c -1.224,0 -2.217,-0.992 -2.217,-2.216 0,-1.225 0.993,-2.217 2.217,-2.217 h 188.524 c 1.224,0 2.216,0.992 2.216,2.217 10e-4,1.224 -0.992,2.216 -2.215,2.216 z" /></g><g
       id="g214"><path
         inkscape:connector-curvature="0"
         id="path212"
         d="M 633.247,454.812 H 456.662 c -1.224,0 -2.217,-0.993 -2.217,-2.217 0,-1.224 0.993,-2.217 2.217,-2.217 h 176.585 c 1.224,0 2.216,0.993 2.216,2.217 0,1.224 -0.992,2.217 -2.216,2.217 z" /></g><g
       id="g218"><path
         inkscape:connector-curvature="0"
         id="path216"
         d="M 627.329,472.696 H 461.901 c -1.224,0 -2.217,-0.992 -2.217,-2.217 0,-1.224 0.993,-2.216 2.217,-2.216 h 165.428 c 1.225,0 2.217,0.992 2.217,2.216 0,1.225 -0.992,2.217 -2.217,2.217 z" /></g><g
       id="g222"><path
         inkscape:connector-curvature="0"
         id="path220"
         d="M 621.411,490.581 H 467.504 c -1.224,0 -2.216,-0.992 -2.216,-2.216 0,-1.225 0.992,-2.217 2.216,-2.217 h 153.907 c 1.225,0 2.217,0.992 2.217,2.217 0,1.224 -0.992,2.216 -2.217,2.216 z" /></g></g><g
     id="g298"
     transform="translate(-6.2288136,22.838983)"><g
       id="g228"><path
         inkscape:connector-curvature="0"
         id="path226"
         d="m 1066.791,834.407 v 0 c 0,0 -0.014,0 -0.016,0 l -151.836,-0.411 c -4.744,-0.013 -8.595,-4.002 -8.582,-8.89 l 0.545,-202.356 c 0.014,-4.877 3.877,-8.842 8.613,-8.842 l 151.851,0.411 c 4.745,0.013 8.596,4 8.582,8.887 l -0.545,202.357 c -0.012,4.877 -3.877,8.844 -8.612,8.844 z m -151.568,-9.276 151.293,0.409 0.567,-202.357 -151.293,-0.409 z" /></g><g
       id="g232"><path
         inkscape:connector-curvature="0"
         id="path230"
         d="m 949.292,720.941 h -0.004 l -19.84,-0.057 c -0.712,0 -1.395,-0.285 -1.909,-0.805 -0.541,-0.541 -0.849,-1.304 -0.844,-2.087 l 0.034,-12.379 c 0,-1.58 1.238,-2.867 2.762,-2.867 l 19.844,0.052 c 1.518,0 2.758,1.29 2.758,2.879 l -0.034,12.392 c -0.009,1.586 -1.249,2.872 -2.767,2.872 z m -18.16,-4.485 16.498,0.048 0.025,-9.276 -16.497,-0.044 z" /></g><g
       id="g236"><path
         inkscape:connector-curvature="0"
         id="path234"
         d="m 983.071,721.032 c -0.005,0 -0.005,0 -0.009,0 l -19.836,-0.057 c -0.714,0 -1.398,-0.285 -1.915,-0.805 -0.539,-0.544 -0.847,-1.303 -0.842,-2.087 l 0.034,-12.376 c 0,-1.58 1.242,-2.87 2.767,-2.87 l 19.844,0.052 c 1.515,0 2.753,1.292 2.753,2.879 l -0.034,12.394 c 0,1.58 -1.24,2.87 -2.762,2.87 z m -18.165,-4.484 16.498,0.047 0.025,-9.276 -16.497,-0.044 z" /></g><g
       id="g240"><path
         inkscape:connector-curvature="0"
         id="path238"
         d="m 1016.846,721.123 v 0 l -19.835,-0.057 c -1.518,0 -2.758,-1.29 -2.758,-2.874 l 0.035,-12.394 c 0,-1.58 1.242,-2.87 2.766,-2.87 l 19.84,0.052 c 1.518,0 2.758,1.292 2.758,2.879 l -0.035,12.394 c -10e-4,1.58 -1.243,2.87 -2.766,2.87 z m -18.16,-4.484 16.497,0.047 0.026,-9.276 -16.498,-0.044 z" /></g><g
       id="g244"><path
         inkscape:connector-curvature="0"
         id="path242"
         d="m 1045.524,679.966 v 0 c 0,0 0,0 -0.01,0 l -115.932,-0.312 c -1.854,-0.009 -3.355,-1.628 -3.351,-3.611 l 0.068,-25.997 c 0.007,-1.982 1.516,-3.593 3.364,-3.593 l 115.938,0.312 c 1.856,0.009 3.361,1.628 3.354,3.61 l -0.069,25.997 c 0,1.983 -1.512,3.594 -3.366,3.594 z m -114.851,-4.743 113.791,0.308 0.065,-24.335 -113.791,-0.308 z" /></g><g
       id="g248"><path
         inkscape:connector-curvature="0"
         id="path246"
         d="m 1050.626,721.214 v 0 c 0,0 0,0 -0.01,0 l -19.84,-0.056 c -1.515,0 -2.758,-1.29 -2.758,-2.875 l 0.035,-12.394 c 0,-1.58 1.242,-2.87 2.766,-2.87 l 19.845,0.052 c 1.521,0.013 2.753,1.303 2.753,2.879 l -0.035,12.394 c 0,0.685 -0.237,1.347 -0.664,1.868 -0.524,0.637 -1.288,1.002 -2.096,1.002 z m -18.166,-4.485 16.498,0.048 0.025,-9.277 -16.497,-0.043 z" /></g><g
       id="g252"><path
         inkscape:connector-curvature="0"
         id="path250"
         d="m 949.227,745.599 c -0.004,0 -0.004,0 -0.008,0 l -19.836,-0.056 c -0.714,0 -1.396,-0.286 -1.913,-0.806 -0.539,-0.541 -0.844,-1.303 -0.84,-2.086 l 0.03,-12.379 c 0.011,-1.587 1.251,-2.868 2.767,-2.868 l 19.844,0.052 c 0.714,0 1.396,0.288 1.913,0.81 0.539,0.541 0.845,1.299 0.84,2.082 l -0.03,12.379 c -0.012,1.586 -1.252,2.872 -2.767,2.872 z m -18.16,-4.485 16.497,0.048 0.021,-9.277 -16.497,-0.043 z" /></g><g
       id="g256"><path
         inkscape:connector-curvature="0"
         id="path254"
         d="m 983.002,745.689 h -0.005 l -19.835,-0.056 c -0.717,0 -1.398,-0.286 -1.918,-0.806 -0.539,-0.543 -0.844,-1.303 -0.84,-2.086 l 0.03,-12.379 c 0.011,-1.587 1.251,-2.868 2.771,-2.868 l 19.84,0.052 c 0.714,0 1.396,0.286 1.913,0.806 0.539,0.545 0.845,1.303 0.84,2.087 l -0.03,12.381 c -0.011,1.584 -1.251,2.869 -2.766,2.869 z m -18.16,-4.484 16.497,0.048 0.022,-9.277 -16.498,-0.043 z" /></g><g
       id="g260"><path
         inkscape:connector-curvature="0"
         id="path258"
         d="m 1016.78,745.781 c 0,0 0,0 -0.01,0 l -19.835,-0.057 c -0.714,0 -1.394,-0.286 -1.911,-0.806 -0.539,-0.541 -0.847,-1.301 -0.842,-2.082 l 0.034,-12.381 c 0.009,-1.586 1.247,-2.87 2.762,-2.87 l 19.845,0.053 c 0.714,0 1.396,0.287 1.913,0.807 0.539,0.544 0.844,1.303 0.84,2.085 l -0.03,12.381 c -0.011,1.584 -1.251,2.87 -2.767,2.87 z m -18.16,-4.485 16.498,0.048 0.021,-9.277 -16.493,-0.043 z" /></g><g
       id="g264"><path
         inkscape:connector-curvature="0"
         id="path262"
         d="m 1050.56,745.872 v 0 c 0,0 0,0 -0.01,0 l -19.837,-0.057 c -0.717,0 -1.398,-0.286 -1.916,-0.805 -0.539,-0.542 -0.847,-1.304 -0.842,-2.083 l 0.034,-12.381 c 0.01,-1.586 1.249,-2.87 2.767,-2.87 l 19.84,0.053 c 1.532,0.013 2.764,1.31 2.753,2.892 l -0.03,12.381 c -0.011,1.584 -1.25,2.87 -2.762,2.87 z m -18.165,-4.485 16.498,0.048 0.021,-9.277 -16.493,-0.043 z" /></g><g
       id="g268"><path
         inkscape:connector-curvature="0"
         id="path266"
         d="m 949.158,770.257 h -0.005 l -19.84,-0.057 c -1.515,0 -2.753,-1.29 -2.753,-2.878 l 0.035,-12.395 c 0,-1.578 1.24,-2.865 2.762,-2.865 l 19.844,0.052 c 0.717,0 1.398,0.288 1.915,0.808 0.539,0.543 0.847,1.301 0.843,2.084 l -0.035,12.379 c 0,1.582 -1.24,2.872 -2.766,2.872 z m -18.16,-4.486 16.497,0.048 0.026,-9.276 -16.498,-0.044 z" /></g><g
       id="g272"><path
         inkscape:connector-curvature="0"
         id="path270"
         d="m 982.937,770.348 c -0.004,0 -0.004,0 -0.009,0 l -19.835,-0.057 c -1.516,0 -2.758,-1.29 -2.758,-2.878 l 0.035,-12.392 c 0.009,-1.587 1.251,-2.868 2.766,-2.868 l 19.844,0.052 c 0.715,0 1.395,0.285 1.912,0.805 0.538,0.546 0.846,1.304 0.842,2.087 l -0.035,12.379 c -10e-4,1.582 -1.238,2.872 -2.762,2.872 z m -18.165,-4.485 16.497,0.047 0.026,-9.276 -16.498,-0.044 z" /></g><g
       id="g276"><path
         inkscape:connector-curvature="0"
         id="path274"
         d="m 1016.711,770.438 v 0 l -19.836,-0.056 c -0.714,0 -1.397,-0.286 -1.913,-0.806 -0.539,-0.541 -0.844,-1.301 -0.84,-2.082 l 0.03,-12.381 c 0.011,-1.587 1.251,-2.87 2.767,-2.87 l 19.84,0.052 c 0.714,0 1.397,0.288 1.913,0.808 0.541,0.543 0.849,1.303 0.844,2.084 l -0.034,12.381 c -0.01,1.585 -1.249,2.87 -2.767,2.87 z m -18.155,-4.484 16.493,0.047 0.026,-9.276 -16.498,-0.043 z" /></g><g
       id="g280"><path
         inkscape:connector-curvature="0"
         id="path278"
         d="m 1050.49,770.529 c -0.01,0 -0.01,0 -0.01,0 l -19.835,-0.056 c -0.715,0 -1.396,-0.286 -1.914,-0.806 -0.539,-0.541 -0.844,-1.303 -0.84,-2.082 l 0.03,-12.381 c 0.011,-1.587 1.251,-2.87 2.767,-2.87 l 19.844,0.052 c 0.715,0 1.395,0.286 1.911,0.806 0.539,0.545 0.847,1.303 0.842,2.086 l -0.034,12.381 c -0.01,1.585 -1.247,2.87 -2.762,2.87 z m -18.16,-4.484 16.493,0.048 0.026,-9.277 -16.498,-0.043 z" /></g><g
       id="g284"><path
         inkscape:connector-curvature="0"
         id="path282"
         d="m 949.093,794.914 c -0.004,0 -0.004,0 -0.009,0 l -19.835,-0.056 c -1.516,0 -2.753,-1.29 -2.753,-2.879 l 0.034,-12.394 c 0,-1.578 1.238,-2.866 2.762,-2.866 l 19.844,0.052 c 1.518,0 2.758,1.29 2.758,2.879 l -0.034,12.395 c -10e-4,1.58 -1.244,2.869 -2.767,2.869 z m -18.16,-4.484 16.498,0.048 0.025,-9.277 -16.497,-0.043 z" /></g><g
       id="g288"><path
         inkscape:connector-curvature="0"
         id="path286"
         d="m 982.867,795.006 h -0.004 l -19.836,-0.057 c -1.52,0 -2.757,-1.29 -2.757,-2.879 l 0.034,-12.394 c 0,-1.578 1.242,-2.866 2.767,-2.866 l 19.839,0.053 c 1.518,0 2.758,1.289 2.758,2.878 l -0.034,12.395 c 0,1.58 -1.242,2.87 -2.767,2.87 z m -18.16,-4.485 16.498,0.048 0.026,-9.277 -16.498,-0.043 z" /></g><g
       id="g292"><path
         inkscape:connector-curvature="0"
         id="path290"
         d="m 1016.646,795.097 c 0,0 0,0 -0.01,0 l -19.835,-0.057 c -1.516,0 -2.754,-1.29 -2.754,-2.879 l 0.035,-12.39 c 0,-1.58 1.24,-2.87 2.762,-2.87 l 19.844,0.053 c 1.516,0 2.758,1.292 2.758,2.878 l -0.035,12.395 c 0,1.58 -1.242,2.87 -2.766,2.87 z m -18.16,-4.486 16.498,0.048 0.025,-9.277 -16.497,-0.043 z" /></g><g
       id="g296"><path
         inkscape:connector-curvature="0"
         id="path294"
         d="m 1050.421,795.188 h -0.01 l -19.835,-0.057 c -1.518,0 -2.758,-1.29 -2.758,-2.874 l 0.035,-12.395 c 0,-1.579 1.242,-2.87 2.766,-2.87 l 19.84,0.053 c 1.518,0 2.758,1.292 2.758,2.879 l -0.034,12.394 c 0,1.579 -1.244,2.87 -2.767,2.87 z m -18.16,-4.486 16.498,0.048 0.025,-9.277 -16.497,-0.043 z" /></g></g><g
     id="g356"
     transform="translate(-124.57627,51.90678)"><g
       id="g302"><path
         inkscape:connector-curvature="0"
         id="path300"
         d="M 420.8,833.449 H 311.211 c -2.447,0 -4.433,-1.985 -4.433,-4.434 V 621.78 c 0,-2.448 1.985,-4.434 4.433,-4.434 h 162.474 c 2.448,0 4.433,1.985 4.433,4.434 v 147.929 c 0,1.089 -0.4,2.139 -1.124,2.95 l -52.885,59.307 c -0.841,0.944 -2.045,1.483 -3.309,1.483 z m -105.155,-8.866 h 103.17 L 469.253,768.02 V 626.213 H 315.645 Z" /></g><g
       id="g306"><path
         inkscape:connector-curvature="0"
         id="path304"
         d="m 420.799,833.449 c -0.529,0 -1.063,-0.096 -1.578,-0.29 -1.719,-0.656 -2.854,-2.304 -2.854,-4.144 v -59.307 c 0,-2.448 1.984,-4.433 4.433,-4.433 h 52.885 c 1.747,0 3.331,1.026 4.046,2.619 0.714,1.595 0.425,3.461 -0.737,4.764 l -52.885,59.307 c -0.859,0.962 -2.07,1.484 -3.31,1.484 z m 4.433,-59.307 v 43.242 l 38.561,-43.242 z" /></g><g
       id="g310"><path
         inkscape:connector-curvature="0"
         id="path308"
         d="m 364.96,650.594 h -32.692 c -1.225,0 -2.217,-0.991 -2.217,-2.217 0,-1.225 0.992,-2.216 2.217,-2.216 h 32.692 c 1.224,0 2.216,0.991 2.216,2.216 0,1.226 -0.992,2.217 -2.216,2.217 z" /></g><g
       id="g314"><path
         inkscape:connector-curvature="0"
         id="path312"
         d="M 456.019,663.152 H 332.268 c -1.225,0 -2.217,-0.992 -2.217,-2.217 0,-1.226 0.992,-2.217 2.217,-2.217 h 123.751 c 1.224,0 2.216,0.991 2.216,2.217 -0.001,1.225 -0.993,2.217 -2.216,2.217 z" /></g><g
       id="g318"><path
         inkscape:connector-curvature="0"
         id="path316"
         d="M 456.019,676.82 H 332.268 c -1.225,0 -2.217,-0.991 -2.217,-2.216 0,-1.226 0.992,-2.217 2.217,-2.217 h 123.751 c 1.224,0 2.216,0.991 2.216,2.217 -0.001,1.225 -0.993,2.216 -2.216,2.216 z" /></g><g
       id="g322"><path
         inkscape:connector-curvature="0"
         id="path320"
         d="M 456.019,690.489 H 332.268 c -1.225,0 -2.217,-0.991 -2.217,-2.217 0,-1.225 0.992,-2.216 2.217,-2.216 h 123.751 c 1.224,0 2.216,0.991 2.216,2.216 -0.001,1.226 -0.993,2.217 -2.216,2.217 z" /></g><g
       id="g326"><path
         inkscape:connector-curvature="0"
         id="path324"
         d="M 456.019,704.158 H 332.268 c -1.225,0 -2.217,-0.991 -2.217,-2.217 0,-1.225 0.992,-2.217 2.217,-2.217 h 123.751 c 1.224,0 2.216,0.992 2.216,2.217 -0.001,1.226 -0.993,2.217 -2.216,2.217 z" /></g><g
       id="g330"><path
         inkscape:connector-curvature="0"
         id="path328"
         d="M 456.019,717.826 H 332.268 c -1.225,0 -2.217,-0.991 -2.217,-2.216 0,-1.226 0.992,-2.217 2.217,-2.217 h 123.751 c 1.224,0 2.216,0.991 2.216,2.217 -0.001,1.225 -0.993,2.216 -2.216,2.216 z" /></g><g
       id="g334"><path
         inkscape:connector-curvature="0"
         id="path332"
         d="M 456.019,731.495 H 332.268 c -1.225,0 -2.217,-0.991 -2.217,-2.216 0,-1.226 0.992,-2.217 2.217,-2.217 h 123.751 c 1.224,0 2.216,0.991 2.216,2.217 -0.001,1.225 -0.993,2.216 -2.216,2.216 z" /></g><g
       id="g338"><path
         inkscape:connector-curvature="0"
         id="path336"
         d="M 456.019,745.164 H 332.268 c -1.225,0 -2.217,-0.991 -2.217,-2.217 0,-1.225 0.992,-2.216 2.217,-2.216 h 123.751 c 1.224,0 2.216,0.991 2.216,2.216 -0.001,1.226 -0.993,2.217 -2.216,2.217 z" /></g><g
       id="g342"><path
         inkscape:connector-curvature="0"
         id="path340"
         d="M 456.019,758.833 H 332.268 c -1.225,0 -2.217,-0.991 -2.217,-2.217 0,-1.225 0.992,-2.217 2.217,-2.217 h 123.751 c 1.224,0 2.216,0.992 2.216,2.217 -0.001,1.226 -0.993,2.217 -2.216,2.217 z" /></g><g
       id="g346"><path
         inkscape:connector-curvature="0"
         id="path344"
         d="M 456.019,772.501 H 332.268 c -1.225,0 -2.217,-0.991 -2.217,-2.216 0,-1.226 0.992,-2.217 2.217,-2.217 h 123.751 c 1.224,0 2.216,0.991 2.216,2.217 -0.001,1.225 -0.993,2.216 -2.216,2.216 z" /></g><g
       id="g350"><path
         inkscape:connector-curvature="0"
         id="path348"
         d="m 420.8,786.17 h -88.532 c -1.225,0 -2.217,-0.991 -2.217,-2.217 0,-1.225 0.992,-2.216 2.217,-2.216 H 420.8 c 1.225,0 2.217,0.991 2.217,2.216 0,1.226 -0.993,2.217 -2.217,2.217 z" /></g><g
       id="g354"><path
         inkscape:connector-curvature="0"
         id="path352"
         d="m 420.8,799.839 h -88.532 c -1.225,0 -2.217,-0.991 -2.217,-2.217 0,-1.225 0.992,-2.216 2.217,-2.216 H 420.8 c 1.225,0 2.217,0.991 2.217,2.216 0,1.226 -0.993,2.217 -2.217,2.217 z" /></g></g><g
     id="g376"
     transform="translate(-6.2288136,22.838983)"><g
       id="g370"><g
         id="g360"><path
           inkscape:connector-curvature="0"
           id="path358"
           d="m 999.673,523.475 c -1.078,-0.47 -1.925,-1.348 -2.355,-2.441 -4.18,-10.643 -6.299,-21.874 -6.299,-33.386 0,-24.917 9.855,-48.19 27.753,-65.534 1.754,-1.7 4.563,-1.656 6.267,0.099 l 60.428,62.351 c 1.032,1.064 1.464,2.574 1.149,4.023 -0.313,1.449 -1.331,2.645 -2.71,3.188 l -80.839,31.762 c -0.523,0.208 -1.073,0.308 -1.623,0.308 -0.602,-0.002 -1.207,-0.123 -1.771,-0.37 z m 22.164,-91.827 c -14.19,15.27 -21.952,34.986 -21.952,55.999 0,8.903 1.402,17.62 4.175,25.973 l 70.409,-27.665 z" /></g><g
         id="g364"><path
           inkscape:connector-curvature="0"
           id="path362"
           d="m 1089.147,481.747 -60.428,-62.348 c -1.701,-1.757 -1.66,-4.561 0.096,-6.265 17.082,-16.597 39.64,-25.736 63.515,-25.736 2.449,0 4.433,1.985 4.433,4.433 v 86.831 c 0,1.805 -1.096,3.431 -2.767,4.107 -0.541,0.219 -1.104,0.325 -1.664,0.325 -1.178,0.001 -2.331,-0.468 -3.185,-1.347 z m -50.899,-65.255 49.648,51.228 v -71.339 c -18.427,0.973 -35.778,8.001 -49.648,20.111 z" /></g><g
         id="g368"><path
           inkscape:connector-curvature="0"
           id="path366"
           d="m 1020.858,527.704 c -0.429,-1.095 -0.407,-2.315 0.063,-3.394 0.47,-1.079 1.349,-1.924 2.444,-2.355 L 1101.39,491.3 v -83.812 c 0,-2.448 1.986,-4.433 4.433,-4.433 50.324,0 91.263,40.94 91.263,91.265 0,50.323 -40.938,91.262 -91.263,91.262 -37.79,0 -71.14,-22.718 -84.965,-57.878 z m 89.398,-33.384 c 0,1.822 -1.115,3.459 -2.81,4.126 l -76.605,30.098 c 13.381,29.409 42.351,48.173 74.982,48.173 45.437,0 82.397,-36.961 82.397,-82.396 0,-43.948 -34.582,-79.972 -77.965,-82.281 v 82.28 z" /></g></g><g
       id="g374"><path
         inkscape:connector-curvature="0"
         id="path372"
         d="m 1134.646,578.453 c 0.242,0 0.491,-0.041 0.735,-0.126 1.154,-0.407 1.76,-1.673 1.355,-2.827 l -28.822,-81.916 c -0.405,-1.154 -1.671,-1.76 -2.827,-1.354 -1.153,0.405 -1.76,1.673 -1.354,2.827 l 28.822,81.916 c 0.32,0.908 1.174,1.48 2.091,1.48 z" /></g></g></svg>