<?xml version="1.0" encoding="UTF-8" standalone="no"?>
<!-- Created with Inkscape (http://www.inkscape.org/) -->

<svg
   xmlns:dc="http://purl.org/dc/elements/1.1/"
   xmlns:cc="http://creativecommons.org/ns#"
   xmlns:rdf="http://www.w3.org/1999/02/22-rdf-syntax-ns#"
   xmlns:svg="http://www.w3.org/2000/svg"
   xmlns="http://www.w3.org/2000/svg"
   xmlns:sodipodi="http://sodipodi.sourceforge.net/DTD/sodipodi-0.dtd"
   xmlns:inkscape="http://www.inkscape.org/namespaces/inkscape"
   width="300"
   height="300"
   viewBox="0 0 79.374996 79.375002"
   version="1.1"
   id="svg5075"
   inkscape:version="0.92.2 (5c3e80d, 2017-08-06)"
   sodipodi:docname="laptop.svg">
  <defs
     id="defs5069" />
  <sodipodi:namedview
     id="base"
     pagecolor="#ffffff"
     bordercolor="#666666"
     borderopacity="1.0"
     inkscape:pageopacity="0.0"
     inkscape:pageshadow="2"
     inkscape:zoom="1.28"
     inkscape:cx="51.073035"
     inkscape:cy="-2.1174185"
     inkscape:document-units="mm"
     inkscape:current-layer="layer1"
     showgrid="false"
     inkscape:window-width="1050"
     inkscape:window-height="1658"
     inkscape:window-x="-8"
     inkscape:window-y="472"
     inkscape:window-maximized="1"
     units="px" />
  <metadata
     id="metadata5072">
    <rdf:RDF>
      <cc:Work
         rdf:about="">
        <dc:format>image/svg+xml</dc:format>
        <dc:type
           rdf:resource="http://purl.org/dc/dcmitype/StillImage" />
        <dc:title></dc:title>
      </cc:Work>
    </rdf:RDF>
  </metadata>
  <g
     inkscape:label="Layer 1"
     inkscape:groupmode="layer"
     id="layer1"
     transform="translate(0,-217.62499)">
    <g
       id="g102"
       transform="matrix(0.28685208,0,0,0.28685208,-155.9599,184.65199)">
      <g
         id="g84">
        <path
           inkscape:connector-curvature="0"
           id="path82"
           d="M 808.289,336.217 H 557.251 c -1.746,0 -3.33,-1.025 -4.044,-2.619 -0.716,-1.593 -0.428,-3.456 0.733,-4.762 l 43.513,-48.882 c 0.841,-0.944 2.045,-1.485 3.311,-1.485 H 764.78 c 1.264,0 2.467,0.541 3.312,1.485 l 43.51,48.882 c 1.16,1.306 1.448,3.169 0.731,4.762 -0.715,1.593 -2.299,2.619 -4.044,2.619 z M 567.132,327.352 H 798.408 L 762.787,287.335 H 602.753 Z" />
      </g>
      <g
         id="g88">
        <path
           inkscape:connector-curvature="0"
           id="path86"
           d="M 767.463,287.335 H 600.764 c -2.448,0 -4.433,-1.985 -4.433,-4.434 V 166.868 c 0,-2.448 1.984,-4.433 4.433,-4.433 h 166.699 c 2.45,0 4.433,1.984 4.433,4.433 v 116.033 c 0,2.449 -1.983,4.434 -4.433,4.434 z M 605.196,278.469 H 763.03 V 171.301 H 605.196 Z" />
      </g>
      <g
         id="g92">
        <path
           inkscape:connector-curvature="0"
           id="path90"
           d="M 752.424,270.075 H 615.805 c -1.225,0 -2.217,-0.991 -2.217,-2.217 v -85.949 c 0,-1.224 0.992,-2.217 2.217,-2.217 h 136.619 c 1.223,0 2.217,0.993 2.217,2.217 v 85.949 c 0,1.226 -0.995,2.217 -2.217,2.217 z M 618.021,265.643 H 750.209 V 184.126 H 618.021 Z" />
      </g>
      <g
         id="g96">
        <path
           inkscape:connector-curvature="0"
           id="path94"
           d="M 770.853,309.56 H 594.688 c -0.873,0 -1.664,-0.513 -2.022,-1.31 -0.357,-0.797 -0.213,-1.729 0.367,-2.381 l 12.59,-14.146 c 0.421,-0.472 1.022,-0.74 1.655,-0.74 h 150.983 c 0.634,0 1.236,0.269 1.656,0.74 l 12.588,14.146 c 0.58,0.651 0.726,1.584 0.368,2.381 -0.358,0.797 -1.148,1.31 -2.02,1.31 z m -171.224,-4.433 h 166.282 l -8.643,-9.71 H 608.273 Z" />
      </g>
      <g
         id="g100">
        <path
           inkscape:connector-curvature="0"
           id="path98"
           d="m 699.257,325.685 h -32.975 c -0.788,0 -1.517,-0.42 -1.914,-1.1 -0.397,-0.68 -0.403,-1.52 -0.017,-2.205 l 6.104,-10.818 c 0.394,-0.697 1.131,-1.128 1.931,-1.128 h 20.768 c 0.8,0 1.538,0.431 1.931,1.128 l 6.104,10.818 c 0.387,0.686 0.381,1.525 -0.017,2.205 -0.398,0.68 -1.127,1.1 -1.915,1.1 z m -29.179,-4.433 h 25.384 l -3.604,-6.385 H 673.68 Z" />
      </g>
    </g>
  </g>
</svg>
