<?xml version="1.0" encoding="UTF-8" standalone="no"?>
<!-- Created with Inkscape (http://www.inkscape.org/) -->

<svg
   xmlns:dc="http://purl.org/dc/elements/1.1/"
   xmlns:cc="http://creativecommons.org/ns#"
   xmlns:rdf="http://www.w3.org/1999/02/22-rdf-syntax-ns#"
   xmlns:svg="http://www.w3.org/2000/svg"
   xmlns="http://www.w3.org/2000/svg"
   xmlns:sodipodi="http://sodipodi.sourceforge.net/DTD/sodipodi-0.dtd"
   xmlns:inkscape="http://www.inkscape.org/namespaces/inkscape"
   width="300"
   height="300"
   viewBox="0 0 79.374996 79.375002"
   version="1.1"
   id="svg5075"
   inkscape:version="0.92.2 (5c3e80d, 2017-08-06)"
   sodipodi:docname="lightbulb.svg">
  <defs
     id="defs5069" />
  <sodipodi:namedview
     id="base"
     pagecolor="#ffffff"
     bordercolor="#666666"
     borderopacity="1.0"
     inkscape:pageopacity="0.0"
     inkscape:pageshadow="2"
     inkscape:zoom="1"
     inkscape:cx="144.96527"
     inkscape:cy="298.75954"
     inkscape:document-units="mm"
     inkscape:current-layer="layer1"
     showgrid="false"
     inkscape:window-width="1920"
     inkscape:window-height="1018"
     inkscape:window-x="1042"
     inkscape:window-y="1072"
     inkscape:window-maximized="1"
     units="px" />
  <metadata
     id="metadata5072">
    <rdf:RDF>
      <cc:Work
         rdf:about="">
        <dc:format>image/svg+xml</dc:format>
        <dc:type
           rdf:resource="http://purl.org/dc/dcmitype/StillImage" />
        <dc:title></dc:title>
      </cc:Work>
    </rdf:RDF>
  </metadata>
  <g
     inkscape:label="Layer 1"
     inkscape:groupmode="layer"
     id="layer1"
     transform="translate(0,-217.62499)">
    <g
       id="g80"
       transform="matrix(0.30819933,0,0,0.30819933,-165.19785,35.794548)">
      <g
         id="g46">
        <g
           id="g36">
          <path
             inkscape:connector-curvature="0"
             id="path34"
             d="m 691.143,783.901 h -54.874 c -2.277,0 -4.185,-1.727 -4.411,-3.993 -0.842,-8.427 -2.785,-19.119 -4.453,-21.694 l -2.658,-4.085 c -11.369,-17.441 -20.35,-31.218 -20.35,-47.374 0,-32.7 26.604,-59.307 59.307,-59.307 32.704,0 59.31,26.606 59.31,59.307 0,16.156 -8.978,29.933 -20.348,47.374 l -2.658,4.085 c -1.674,2.58 -3.614,13.271 -4.453,21.692 -0.228,2.269 -2.134,3.995 -4.412,3.995 z m -50.917,-8.865 h 46.96 c 0.79,-6.26 2.524,-17.238 5.382,-21.645 l 2.67,-4.104 c 10.566,-16.207 18.91,-29.008 18.91,-42.532 0,-27.813 -22.628,-50.44 -50.444,-50.44 -27.813,0 -50.44,22.627 -50.44,50.44 0,13.524 8.345,26.325 18.911,42.532 l 2.669,4.104 c 2.855,4.407 4.592,15.385 5.382,21.645 z" />
        </g>
        <g
           id="g40">
          <path
             inkscape:connector-curvature="0"
             id="path38"
             d="m 686.941,820.343 h -46.13 c -5.281,0 -9.577,-4.296 -9.577,-9.578 v -28.809 c 0,-2.448 1.984,-4.433 4.433,-4.433 h 56.419 c 2.448,0 4.433,1.984 4.433,4.433 v 28.809 c 0,5.282 -4.296,9.578 -9.578,9.578 z M 640.1,786.389 v 24.376 c 0,0.395 0.319,0.713 0.712,0.713 h 46.13 c 0.393,0 0.712,-0.318 0.712,-0.713 v -24.376 z" />
        </g>
        <g
           id="g44">
          <path
             inkscape:connector-curvature="0"
             id="path42"
             d="m 663.877,832.565 c -8.474,0 -15.366,-6.892 -15.366,-15.365 0,-2.448 1.985,-4.433 4.433,-4.433 2.448,0 4.434,1.984 4.434,4.433 0,3.584 2.915,6.5 6.5,6.5 3.584,0 6.499,-2.916 6.499,-6.5 0,-2.448 1.985,-4.433 4.434,-4.433 2.447,0 4.433,1.984 4.433,4.433 -0.002,8.474 -6.894,15.365 -15.367,15.365 z" />
        </g>
      </g>
      <g
         id="g50">
        <path
           inkscape:connector-curvature="0"
           id="path48"
           d="m 663.703,632.898 c -2.448,0 -4.433,-1.984 -4.433,-4.433 v -22.121 c 0,-2.45 1.984,-4.433 4.433,-4.433 2.449,0 4.433,1.982 4.433,4.433 v 22.121 c 0,2.449 -1.985,4.433 -4.433,4.433 z" />
      </g>
      <g
         id="g54">
        <path
           inkscape:connector-curvature="0"
           id="path52"
           d="m 758.346,705.422 h -22.121 c -2.449,0 -4.433,-1.987 -4.433,-4.433 0,-2.45 1.983,-4.433 4.433,-4.433 h 22.121 c 2.45,0 4.434,1.982 4.434,4.433 -10e-4,2.446 -1.984,4.433 -4.434,4.433 z" />
      </g>
      <g
         id="g58">
        <path
           inkscape:connector-curvature="0"
           id="path56"
           d="M 591.183,705.422 H 569.06 c -2.448,0 -4.434,-1.987 -4.434,-4.433 0,-2.45 1.985,-4.433 4.434,-4.433 h 22.123 c 2.448,0 4.433,1.982 4.433,4.433 -10e-4,2.446 -1.985,4.433 -4.433,4.433 z" />
      </g>
      <g
         id="g62">
        <path
           inkscape:connector-curvature="0"
           id="path60"
           d="m 714.982,654.141 c -1.134,0 -2.268,-0.433 -3.134,-1.298 -1.731,-1.731 -1.731,-4.539 0,-6.269 l 15.645,-15.645 c 1.728,-1.732 4.537,-1.732 6.269,0 1.731,1.731 1.731,4.536 0,6.268 l -15.645,15.646 c -0.863,0.865 -2,1.298 -3.135,1.298 z" />
      </g>
      <g
         id="g66">
        <path
           inkscape:connector-curvature="0"
           id="path64"
           d="m 596.782,772.344 c -1.135,0 -2.269,-0.434 -3.135,-1.299 -1.731,-1.731 -1.731,-4.537 0,-6.269 l 15.643,-15.645 c 1.729,-1.731 4.537,-1.731 6.269,0 1.732,1.731 1.731,4.538 0,6.268 l -15.643,15.646 c -0.864,0.865 -2,1.299 -3.134,1.299 z" />
      </g>
      <g
         id="g70">
        <path
           inkscape:connector-curvature="0"
           id="path68"
           d="m 730.628,772.344 c -1.135,0 -2.271,-0.434 -3.135,-1.299 l -15.645,-15.646 c -1.731,-1.729 -1.731,-4.536 0,-6.268 1.731,-1.732 4.541,-1.731 6.269,0 l 15.645,15.645 c 1.731,1.731 1.731,4.537 0,6.269 -0.866,0.865 -2,1.299 -3.134,1.299 z" />
      </g>
      <g
         id="g74">
        <path
           inkscape:connector-curvature="0"
           id="path72"
           d="m 612.425,654.141 c -1.135,0 -2.27,-0.433 -3.135,-1.298 l -15.643,-15.646 c -1.731,-1.729 -1.731,-4.536 0,-6.268 1.729,-1.732 4.539,-1.732 6.269,0 l 15.643,15.645 c 1.731,1.729 1.731,4.537 0,6.269 -0.865,0.865 -2,1.298 -3.134,1.298 z" />
      </g>
      <g
         id="g78">
        <path
           inkscape:connector-curvature="0"
           id="path76"
           d="m 656.05,781.686 c -1.224,0 -2.217,-0.994 -2.217,-2.217 0,-16.616 -0.77,-34.648 -2.13,-46.958 -3.669,-0.479 -6.558,-1.087 -7.961,-1.695 -4.62,-2 -5.357,-7.563 -3.706,-11.783 1.805,-4.619 5.866,-6.861 9.891,-5.45 2.646,0.931 4.473,6.822 5.724,15.069 4.007,0.351 8.55,0.48 12.818,0.381 0.796,-6.439 1.916,-11.731 3.485,-14.463 2.962,-5.151 7.103,-5.229 9.997,-3.576 4.961,2.831 8.877,12.039 5.937,17.221 -1.756,3.1 -8.061,4.565 -15.42,5.043 -1.466,15.304 -1.571,36.359 -1.403,46.173 0.021,1.226 -0.954,2.234 -2.179,2.256 -1.221,-0.078 -2.233,-0.957 -2.254,-2.18 -0.064,-3.79 -0.392,-27.872 1.356,-46.075 -3.987,0.058 -8.069,-0.117 -11.755,-0.436 1.676,14.11 2.033,32.979 2.033,46.474 0.001,1.221 -0.993,2.216 -2.216,2.216 z m 22.487,-67.243 c -0.733,0 -1.673,0.48 -2.738,2.334 -1.226,2.134 -2.152,6.502 -2.846,12.047 5.722,-0.402 10.24,-1.316 11.08,-2.797 1.54,-2.714 -0.98,-9.301 -4.28,-11.186 -0.286,-0.161 -0.7,-0.398 -1.216,-0.398 z m -31.067,3.1 c -1.972,0 -3.083,2.535 -3.307,3.104 -0.896,2.29 -0.73,5.206 1.341,6.104 1.287,0.554 3.263,1.017 5.655,1.381 -0.802,-5.719 -1.764,-9.559 -2.86,-10.446 -0.291,-0.1 -0.568,-0.143 -0.829,-0.143 z" />
      </g>
    </g>
  </g>
</svg>
