<?xml version="1.0" standalone="no"?>
<!DOCTYPE svg PUBLIC "-//W3C//DTD SVG 20010904//EN"
 "http://www.w3.org/TR/2001/REC-SVG-20010904/DTD/svg10.dtd">
<svg version="1.0" xmlns="http://www.w3.org/2000/svg"
 width="364.000000pt" height="364.000000pt" viewBox="0 0 364.000000 364.000000"
 preserveAspectRatio="xMidYMid meet">
<metadata>
Created by potrace 1.11, written by Peter Selinger 2001-2013
</metadata>
<g transform="translate(0.000000,364.000000) scale(0.100000,-0.100000)"
fill="#000000" stroke="none">
<path d="M700 3633 c-228 -39 -436 -170 -558 -353 -54 -81 -72 -123 -56 -135
7 -5 85 -183 174 -395 89 -212 199 -473 245 -580 46 -107 100 -235 120 -285
20 -49 43 -103 50 -120 21 -46 61 -154 125 -335 32 -90 61 -165 66 -167 5 -1
25 48 45 110 31 95 140 383 183 482 8 17 44 105 82 197 38 92 72 164 76 160 3
-4 18 -36 33 -72 14 -36 30 -74 35 -85 6 -11 41 -93 79 -183 77 -180 75 -159
26 -267 -7 -16 -41 -95 -75 -175 -34 -80 -68 -158 -75 -175 -8 -16 -82 -187
-165 -380 -83 -192 -161 -370 -172 -395 -11 -25 -32 -70 -46 -100 l-25 -55
-29 65 c-66 143 -201 447 -298 670 -56 129 -110 253 -120 275 -35 79 -333 772
-372 865 -22 52 -42 97 -44 100 -8 8 2 -1604 9 -1635 22 -87 31 -115 54 -170
49 -118 153 -251 255 -328 102 -78 256 -140 385 -158 51 -6 458 -9 1163 -7
1081 3 1085 3 1162 25 217 62 395 201 506 395 29 51 73 169 87 233 9 40 19
325 12 325 -4 0 -21 -13 -39 -29 -69 -59 -207 -144 -367 -225 -256 -128 -749
-342 -771 -334 -11 4 87 252 157 399 l50 105 99 43 c54 24 155 71 224 104 418
202 564 414 553 804 -8 325 -147 633 -392 872 -114 110 -192 159 -299 186 -90
23 -111 25 -217 26 -114 0 -217 -18 -343 -62 -133 -47 -582 -231 -582 -239 0
-4 43 -113 95 -241 53 -129 143 -351 201 -494 58 -143 109 -269 114 -280 14
-29 59 -151 80 -215 26 -79 51 -140 59 -140 3 0 17 35 29 78 33 106 336 866
447 1117 43 98 115 276 115 285 0 16 16 12 67 -16 72 -40 121 -82 231 -196
l43 -45 -139 -324 c-77 -178 -149 -346 -161 -374 -12 -27 -26 -59 -30 -70 -19
-45 -80 -188 -111 -259 -12 -27 -86 -198 -165 -380 -139 -322 -260 -600 -305
-700 l-23 -50 -14 28 c-39 74 -324 724 -590 1346 -149 349 -161 376 -174 405
-5 11 -74 173 -153 360 -112 265 -141 343 -132 354 16 21 215 110 584 263 579
239 833 298 1093 253 175 -30 342 -99 489 -203 64 -45 201 -175 253 -240 l26
-33 -5 48 c-34 333 -262 602 -596 705 l-73 23 -1120 1 c-616 1 -1131 0 -1145
-3z"/>
</g>
</svg>
